<?xml version="1.0" encoding="UTF-8"?>
<svg id="Layer_2" xmlns="http://www.w3.org/2000/svg" xmlns:xlink="http://www.w3.org/1999/xlink" viewBox="0 0 33.58 33.58">
  <defs>
    <style>
      .cls-1 {
        fill: #c2cbbd;
      }

      .cls-2 {
        fill: #fbc926;
      }

      .cls-3 {
        fill: url(#Bluestone);
      }
    </style>
    <linearGradient id="Bluestone" x1="0" y1="16.79" x2="33.58" y2="16.79" gradientUnits="userSpaceOnUse">
      <stop offset="0" stop-color="#375270"/>
      <stop offset=".09" stop-color="#445d7a"/>
      <stop offset=".24" stop-color="#556b88"/>
      <stop offset=".41" stop-color="#5e7490"/>
      <stop offset=".62" stop-color="#627793"/>
      <stop offset=".73" stop-color="#637996"/>
      <stop offset=".81" stop-color="#6780a0"/>
      <stop offset=".89" stop-color="#6d8bb1"/>
      <stop offset=".96" stop-color="#769bc8"/>
      <stop offset="1" stop-color="#7da7d9"/>
    </linearGradient>
  </defs>
  <g id="color_variants_copy">
    <g>
      <circle class="cls-3" cx="16.79" cy="16.79" r="16.79"/>
      <g>
        <path class="cls-1" d="M29.46,8.1c-.14,0-.28.02-.41.06-1.28-1.81-2.94-3.32-4.86-4.41-2.24-1.27-4.79-1.94-7.37-1.94,0,0-.02,0-.03,0h-.36v3.65h.37s.03,0,.04,0c2.62,0,5.11.89,7.12,2.53-.07.16-.12.34-.12.52,0,.68.56,1.24,1.24,1.24s1.24-.56,1.24-1.24-.56-1.24-1.24-1.24c-.23,0-.45.06-.63.17-.94-.77-1.98-1.39-3.11-1.84-1.34-.54-2.74-.83-4.18-.87v-2.19c2.34.06,4.64.69,6.67,1.84,1.82,1.03,3.4,2.46,4.61,4.17-.22.25-.36.57-.36.93,0,.76.62,1.39,1.39,1.39s1.39-.62,1.39-1.39-.62-1.39-1.39-1.39ZM29.46,10.15c-.36,0-.66-.29-.66-.66,0-.01,0-.02,0-.04,0,0,0,0,0,0,0,0,0-.02,0-.03,0,0,0,0,0,0,0,0,0-.02,0-.03,0,0,0,0,0,0,0,0,0-.02,0-.03,0,0,0,0,0,0,0-.01,0-.02,0-.03,0,0,0,0,0,0,.08-.28.33-.48.63-.48.03,0,.06,0,.09,0,0,0,0,0,0,0,.25.04.46.22.53.46,0,0,0,0,0,0,0,.02.01.04.02.06,0,0,0,0,0,0,0,.02,0,.04,0,.06,0,0,0,0,0,0,0,.02,0,.04,0,.06,0,.36-.29.66-.66.66Z"/>
        <path class="cls-1" d="M16.79,28.1c-2.61,0-5.1-.89-7.11-2.53.07-.16.12-.34.12-.52,0-.68-.56-1.24-1.24-1.24s-1.24.56-1.24,1.24.56,1.24,1.24,1.24c.23,0,.45-.06.63-.17,2.05,1.68,4.57,2.63,7.23,2.71v2.19c-2.32-.07-4.61-.71-6.64-1.85-1.81-1.03-3.38-2.45-4.58-4.15.22-.25.36-.57.36-.93,0-.76-.62-1.39-1.39-1.39s-1.39.62-1.39,1.39.62,1.39,1.39,1.39c.14,0,.28-.02.41-.06,1.27,1.8,2.92,3.3,4.84,4.39,2.24,1.27,4.79,1.95,7.36,1.95h.37s0-3.65,0-3.65h-.36ZM4.18,24.75s-.06,0-.09,0c0,0,0,0,0,0-.25-.04-.46-.22-.53-.46,0,0,0,0,0,0,0-.02-.01-.04-.02-.06,0,0,0,0,0,0,0-.02,0-.04,0-.06,0,0,0,0,0,0,0-.02,0-.04,0-.06,0-.36.29-.66.66-.66s.66.29.66.66c0,.01,0,.02,0,.04,0,0,0,0,0,0,0,0,0,.02,0,.03,0,0,0,0,0,0,0,0,0,.02,0,.03,0,0,0,0,0,0,0,0,0,.02,0,.03,0,0,0,0,0,0,0,.01,0,.02,0,.03,0,0,0,0,0,0-.08.28-.33.48-.63.48Z"/>
        <path class="cls-1" d="M31.76,16.42h-3.65v.37c0,2.64-.88,5.14-2.53,7.16-.16-.07-.34-.12-.52-.12-.68,0-1.24.56-1.24,1.24s.56,1.24,1.24,1.24,1.24-.56,1.24-1.24c0-.23-.06-.45-.17-.63.77-.94,1.39-1.98,1.84-3.11.54-1.34.83-2.74.87-4.18h2.19c-.06,2.34-.69,4.64-1.84,6.67-1.03,1.82-2.46,3.4-4.17,4.61-.25-.22-.57-.36-.93-.36-.76,0-1.39.62-1.39,1.39s.62,1.39,1.39,1.39,1.39-.62,1.39-1.39c0-.14-.02-.28-.06-.41,1.81-1.28,3.32-2.94,4.41-4.86,1.27-2.25,1.94-4.81,1.94-7.4v-.36ZM24.28,30.09h0s-.04.01-.06.02c0,0,0,0,0,0-.02,0-.04,0-.06,0,0,0,0,0,0,0-.02,0-.04,0-.06,0h0s0,0,0,0c-.35,0-.63-.27-.65-.61,0-.02,0-.03,0-.05s0-.03,0-.05c.02-.34.31-.61.65-.61,0,0,0,0,0,0h0s.02,0,.04,0c0,0,0,0,0,0,0,0,.02,0,.03,0,0,0,0,0,0,0,0,0,.02,0,.03,0,0,0,0,0,0,0,0,0,.02,0,.03,0,0,0,0,0,0,0,.01,0,.02,0,.03,0,0,0,0,0,0,0,.28.08.48.33.48.63s-.2.55-.47.63Z"/>
        <path class="cls-1" d="M8.56,5.2c.25.22.57.36.93.36.76,0,1.39-.62,1.39-1.39s-.62-1.39-1.39-1.39-1.39.62-1.39,1.39c0,.14.02.28.06.41-1.8,1.27-3.3,2.92-4.39,4.84-1.27,2.24-1.95,4.79-1.95,7.36v.37s3.65,0,3.65,0v-.36c0-2.61.89-5.1,2.53-7.11.16.07.34.12.52.12.68,0,1.24-.56,1.24-1.24s-.56-1.24-1.24-1.24-1.24.56-1.24,1.24c0,.23.06.45.17.63-1.68,2.05-2.63,4.57-2.71,7.23h-2.19c.07-2.32.71-4.61,1.85-6.64,1.03-1.81,2.45-3.38,4.15-4.58ZM9.3,3.55s0,0,0,0c.02,0,.04-.01.06-.02,0,0,0,0,0,0,.02,0,.04,0,.06,0,0,0,0,0,0,0,.02,0,.04,0,.06,0h0s0,0,0,0c.35,0,.64.28.65.62,0,.01,0,.02,0,.03s0,.02,0,.03c-.02.35-.3.62-.65.62,0,0,0,0,0,0h0s-.02,0-.04,0c0,0,0,0,0,0,0,0-.02,0-.03,0,0,0,0,0,0,0,0,0-.02,0-.03,0,0,0,0,0,0,0,0,0-.02,0-.03,0,0,0,0,0,0,0-.01,0-.02,0-.03,0,0,0,0,0,0,0-.28-.08-.48-.33-.48-.63s.2-.55.47-.63Z"/>
      </g>
      <g>
        <path class="cls-2" d="M13.02,10.56l-.5.85h10.1c.15,0,.27.12.27.27s-.12.27-.27.27h-10.42l-.93,1.57h14.91l1.75-2.95h-14.91Z"/>
        <path class="cls-2" d="M10.21,15.31l-.53.89h5.52c.15,0,.27.12.27.27s-.12.27-.27.27h-5.84l-.9,1.52h10.01l1.75-2.95h-10.01Z"/>
        <path class="cls-2" d="M7.4,20.07l-.5.85h10.1c.15,0,.27.12.27.27s-.12.27-.27.27H6.58l-.93,1.57h14.91l1.75-2.95H7.4Z"/>
      </g>
    </g>
  </g>
</svg>